<?xml version="1.0" encoding="utf-8" standalone="no"?>
<!DOCTYPE svg PUBLIC "-//W3C//DTD SVG 1.1//EN"
  "http://www.w3.org/Graphics/SVG/1.1/DTD/svg11.dtd">
<!-- Created with matplotlib (http://matplotlib.org/) -->
<svg height="595pt" version="1.1" viewBox="0 0 1176 595" width="1176pt" xmlns="http://www.w3.org/2000/svg" xmlns:xlink="http://www.w3.org/1999/xlink">
 <defs>
  <style type="text/css">
*{stroke-linecap:butt;stroke-linejoin:round;}
  </style>
 </defs>
 <g id="figure_1">
  <g id="patch_1">
   <path d="M 0 595.875 
L 1176.87787 595.875 
L 1176.87787 0 
L 0 0 
z
" style="fill:#ffffff;"/>
  </g>
  <g id="axes_1">
   <g id="patch_2">
    <path d="M 41.667187 571.996875 
L 1157.667187 571.996875 
L 1157.667187 28.396875 
L 41.667187 28.396875 
z
" style="fill:#ffffff;"/>
   </g>
   <g id="PathCollection_1">
    <defs>
     <path d="M 0 3 
C 0.795609 3 1.55874 2.683901 2.12132 2.12132 
C 2.683901 1.55874 3 0.795609 3 0 
C 3 -0.795609 2.683901 -1.55874 2.12132 -2.12132 
C 1.55874 -2.683901 0.795609 -3 0 -3 
C -0.795609 -3 -1.55874 -2.683901 -2.12132 -2.12132 
C -2.683901 -1.55874 -3 -0.795609 -3 0 
C -3 0.795609 -2.683901 1.55874 -2.12132 2.12132 
C -1.55874 2.683901 -0.795609 3 0 3 
z
" id="ma6ec43cbe4" style="stroke:#1f77b4;"/>
    </defs>
    <g clip-path="url(#p167eebcd63)">
     <use style="fill:#1f77b4;stroke:#1f77b4;" x="767.824346" xlink:href="#ma6ec43cbe4" y="388.463825"/>
     <use style="fill:#1f77b4;stroke:#1f77b4;" x="803.959773" xlink:href="#ma6ec43cbe4" y="226.864642"/>
     <use style="fill:#1f77b4;stroke:#1f77b4;" x="732.165566" xlink:href="#ma6ec43cbe4" y="223.860496"/>
     <use style="fill:#1f77b4;stroke:#1f77b4;" x="1106.929432" xlink:href="#ma6ec43cbe4" y="211.690889"/>
     <use style="fill:#1f77b4;stroke:#1f77b4;" x="883.375121" xlink:href="#ma6ec43cbe4" y="383.051482"/>
     <use style="fill:#1f77b4;stroke:#1f77b4;" x="653.089841" xlink:href="#ma6ec43cbe4" y="335.615539"/>
     <use style="fill:#1f77b4;stroke:#1f77b4;" x="605.716844" xlink:href="#ma6ec43cbe4" y="181.579095"/>
     <use style="fill:#1f77b4;stroke:#1f77b4;" x="665.162336" xlink:href="#ma6ec43cbe4" y="387.119828"/>
     <use style="fill:#1f77b4;stroke:#1f77b4;" x="1007.324026" xlink:href="#ma6ec43cbe4" y="143.2789"/>
     <use style="fill:#1f77b4;stroke:#1f77b4;" x="428.40882" xlink:href="#ma6ec43cbe4" y="287.851522"/>
     <use style="fill:#1f77b4;stroke:#1f77b4;" x="601.032067" xlink:href="#ma6ec43cbe4" y="547.27503"/>
     <use style="fill:#1f77b4;stroke:#1f77b4;" x="665.70033" xlink:href="#ma6ec43cbe4" y="267.529779"/>
     <use style="fill:#1f77b4;stroke:#1f77b4;" x="1096.626322" xlink:href="#ma6ec43cbe4" y="309.651636"/>
     <use style="fill:#1f77b4;stroke:#1f77b4;" x="375.188338" xlink:href="#ma6ec43cbe4" y="434.379707"/>
     <use style="fill:#1f77b4;stroke:#1f77b4;" x="490.91391" xlink:href="#ma6ec43cbe4" y="407.000166"/>
     <use style="fill:#1f77b4;stroke:#1f77b4;" x="513.979118" xlink:href="#ma6ec43cbe4" y="481.86326"/>
     <use style="fill:#1f77b4;stroke:#1f77b4;" x="1015.93455" xlink:href="#ma6ec43cbe4" y="243.184587"/>
     <use style="fill:#1f77b4;stroke:#1f77b4;" x="295.002265" xlink:href="#ma6ec43cbe4" y="399.280056"/>
     <use style="fill:#1f77b4;stroke:#1f77b4;" x="391.50676" xlink:href="#ma6ec43cbe4" y="367.575691"/>
     <use style="fill:#1f77b4;stroke:#1f77b4;" x="267.023952" xlink:href="#ma6ec43cbe4" y="346.997172"/>
     <use style="fill:#1f77b4;stroke:#1f77b4;" x="678.700819" xlink:href="#ma6ec43cbe4" y="131.87067"/>
     <use style="fill:#1f77b4;stroke:#1f77b4;" x="516.625444" xlink:href="#ma6ec43cbe4" y="318.888537"/>
     <use style="fill:#1f77b4;stroke:#1f77b4;" x="510.754143" xlink:href="#ma6ec43cbe4" y="268.491804"/>
     <use style="fill:#1f77b4;stroke:#1f77b4;" x="522.493263" xlink:href="#ma6ec43cbe4" y="213.264885"/>
     <use style="fill:#1f77b4;stroke:#1f77b4;" x="558.881372" xlink:href="#ma6ec43cbe4" y="132.881411"/>
     <use style="fill:#1f77b4;stroke:#1f77b4;" x="644.06006" xlink:href="#ma6ec43cbe4" y="511.889694"/>
     <use style="fill:#1f77b4;stroke:#1f77b4;" x="569.167434" xlink:href="#ma6ec43cbe4" y="367.512737"/>
     <use style="fill:#1f77b4;stroke:#1f77b4;" x="352.085993" xlink:href="#ma6ec43cbe4" y="176.634422"/>
     <use style="fill:#1f77b4;stroke:#1f77b4;" x="874.492878" xlink:href="#ma6ec43cbe4" y="245.060241"/>
     <use style="fill:#1f77b4;stroke:#1f77b4;" x="625.205351" xlink:href="#ma6ec43cbe4" y="437.73756"/>
     <use style="fill:#1f77b4;stroke:#1f77b4;" x="769.286879" xlink:href="#ma6ec43cbe4" y="457.121479"/>
     <use style="fill:#1f77b4;stroke:#1f77b4;" x="837.458052" xlink:href="#ma6ec43cbe4" y="527.894796"/>
     <use style="fill:#1f77b4;stroke:#1f77b4;" x="881.372348" xlink:href="#ma6ec43cbe4" y="485.154554"/>
     <use style="fill:#1f77b4;stroke:#1f77b4;" x="991.141241" xlink:href="#ma6ec43cbe4" y="537.763583"/>
     <use style="fill:#1f77b4;stroke:#1f77b4;" x="966.29072" xlink:href="#ma6ec43cbe4" y="492.20572"/>
     <use style="fill:#1f77b4;stroke:#1f77b4;" x="743.229508" xlink:href="#ma6ec43cbe4" y="539.65341"/>
     <use style="fill:#1f77b4;stroke:#1f77b4;" x="598.406656" xlink:href="#ma6ec43cbe4" y="53.11872"/>
     <use style="fill:#1f77b4;stroke:#1f77b4;" x="912.486754" xlink:href="#ma6ec43cbe4" y="539.983898"/>
     <use style="fill:#1f77b4;stroke:#1f77b4;" x="707.310188" xlink:href="#ma6ec43cbe4" y="182.349888"/>
     <use style="fill:#1f77b4;stroke:#1f77b4;" x="453.798064" xlink:href="#ma6ec43cbe4" y="169.279719"/>
     <use style="fill:#1f77b4;stroke:#1f77b4;" x="654.535654" xlink:href="#ma6ec43cbe4" y="226.14812"/>
     <use style="fill:#1f77b4;stroke:#1f77b4;" x="317.478448" xlink:href="#ma6ec43cbe4" y="97.275786"/>
     <use style="fill:#1f77b4;stroke:#1f77b4;" x="812.833865" xlink:href="#ma6ec43cbe4" y="284.07384"/>
     <use style="fill:#1f77b4;stroke:#1f77b4;" x="934.12844" xlink:href="#ma6ec43cbe4" y="275.88549"/>
     <use style="fill:#1f77b4;stroke:#1f77b4;" x="853.35817" xlink:href="#ma6ec43cbe4" y="187.369213"/>
     <use style="fill:#1f77b4;stroke:#1f77b4;" x="717.509191" xlink:href="#ma6ec43cbe4" y="307.349639"/>
     <use style="fill:#1f77b4;stroke:#1f77b4;" x="884.082312" xlink:href="#ma6ec43cbe4" y="99.875462"/>
     <use style="fill:#1f77b4;stroke:#1f77b4;" x="582.667381" xlink:href="#ma6ec43cbe4" y="243.015921"/>
     <use style="fill:#1f77b4;stroke:#1f77b4;" x="787.67857" xlink:href="#ma6ec43cbe4" y="335.22112"/>
     <use style="fill:#1f77b4;stroke:#1f77b4;" x="750.27694" xlink:href="#ma6ec43cbe4" y="265.948722"/>
     <use style="fill:#1f77b4;stroke:#1f77b4;" x="938.761414" xlink:href="#ma6ec43cbe4" y="196.553417"/>
     <use style="fill:#1f77b4;stroke:#1f77b4;" x="598.043263" xlink:href="#ma6ec43cbe4" y="288.878855"/>
     <use style="fill:#1f77b4;stroke:#1f77b4;" x="959.45067" xlink:href="#ma6ec43cbe4" y="335.141213"/>
     <use style="fill:#1f77b4;stroke:#1f77b4;" x="775.701008" xlink:href="#ma6ec43cbe4" y="144.884462"/>
     <use style="fill:#1f77b4;stroke:#1f77b4;" x="195.621571" xlink:href="#ma6ec43cbe4" y="183.757111"/>
     <use style="fill:#1f77b4;stroke:#1f77b4;" x="230.461504" xlink:href="#ma6ec43cbe4" y="239.047315"/>
     <use style="fill:#1f77b4;stroke:#1f77b4;" x="875.612928" xlink:href="#ma6ec43cbe4" y="318.863699"/>
     <use style="fill:#1f77b4;stroke:#1f77b4;" x="684.897896" xlink:href="#ma6ec43cbe4" y="76.249816"/>
     <use style="fill:#1f77b4;stroke:#1f77b4;" x="333.964043" xlink:href="#ma6ec43cbe4" y="312.667833"/>
     <use style="fill:#1f77b4;stroke:#1f77b4;" x="113.583936" xlink:href="#ma6ec43cbe4" y="275.177244"/>
     <use style="fill:#1f77b4;stroke:#1f77b4;" x="92.404943" xlink:href="#ma6ec43cbe4" y="334.932354"/>
     <use style="fill:#1f77b4;stroke:#1f77b4;" x="191.230863" xlink:href="#ma6ec43cbe4" y="282.815821"/>
     <use style="fill:#1f77b4;stroke:#1f77b4;" x="117.598974" xlink:href="#ma6ec43cbe4" y="227.128182"/>
     <use style="fill:#1f77b4;stroke:#1f77b4;" x="347.546885" xlink:href="#ma6ec43cbe4" y="246.040583"/>
     <use style="fill:#1f77b4;stroke:#1f77b4;" x="438.217581" xlink:href="#ma6ec43cbe4" y="238.11391"/>
    </g>
   </g>
   <g id="matplotlib.axis_1">
    <g id="xtick_1">
     <g id="line2d_1">
      <defs>
       <path d="M 0 0 
L 0 3.5 
" id="mcedf7be1b6" style="stroke:#000000;stroke-width:0.8;"/>
      </defs>
      <g>
       <use style="stroke:#000000;stroke-width:0.8;" x="214.333997" xlink:href="#mcedf7be1b6" y="571.996875"/>
      </g>
     </g>
     <g id="text_1">
      <!-- −100 -->
      <defs>
       <path d="M 10.59375 35.5 
L 73.1875 35.5 
L 73.1875 27.203125 
L 10.59375 27.203125 
z
" id="DejaVuSans-2212"/>
       <path d="M 12.40625 8.296875 
L 28.515625 8.296875 
L 28.515625 63.921875 
L 10.984375 60.40625 
L 10.984375 69.390625 
L 28.421875 72.90625 
L 38.28125 72.90625 
L 38.28125 8.296875 
L 54.390625 8.296875 
L 54.390625 0 
L 12.40625 0 
z
" id="DejaVuSans-31"/>
       <path d="M 31.78125 66.40625 
Q 24.171875 66.40625 20.328125 58.90625 
Q 16.5 51.421875 16.5 36.375 
Q 16.5 21.390625 20.328125 13.890625 
Q 24.171875 6.390625 31.78125 6.390625 
Q 39.453125 6.390625 43.28125 13.890625 
Q 47.125 21.390625 47.125 36.375 
Q 47.125 51.421875 43.28125 58.90625 
Q 39.453125 66.40625 31.78125 66.40625 
z
M 31.78125 74.21875 
Q 44.046875 74.21875 50.515625 64.515625 
Q 56.984375 54.828125 56.984375 36.375 
Q 56.984375 17.96875 50.515625 8.265625 
Q 44.046875 -1.421875 31.78125 -1.421875 
Q 19.53125 -1.421875 13.0625 8.265625 
Q 6.59375 17.96875 6.59375 36.375 
Q 6.59375 54.828125 13.0625 64.515625 
Q 19.53125 74.21875 31.78125 74.21875 
z
" id="DejaVuSans-30"/>
      </defs>
      <g transform="translate(200.600403 586.595312)scale(0.1 -0.1)">
       <use xlink:href="#DejaVuSans-2212"/>
       <use x="83.789062" xlink:href="#DejaVuSans-31"/>
       <use x="147.412109" xlink:href="#DejaVuSans-30"/>
       <use x="211.035156" xlink:href="#DejaVuSans-30"/>
      </g>
     </g>
    </g>
    <g id="xtick_2">
     <g id="line2d_2">
      <g>
       <use style="stroke:#000000;stroke-width:0.8;" x="409.312616" xlink:href="#mcedf7be1b6" y="571.996875"/>
      </g>
     </g>
     <g id="text_2">
      <!-- −50 -->
      <defs>
       <path d="M 10.796875 72.90625 
L 49.515625 72.90625 
L 49.515625 64.59375 
L 19.828125 64.59375 
L 19.828125 46.734375 
Q 21.96875 47.46875 24.109375 47.828125 
Q 26.265625 48.1875 28.421875 48.1875 
Q 40.625 48.1875 47.75 41.5 
Q 54.890625 34.8125 54.890625 23.390625 
Q 54.890625 11.625 47.5625 5.09375 
Q 40.234375 -1.421875 26.90625 -1.421875 
Q 22.3125 -1.421875 17.546875 -0.640625 
Q 12.796875 0.140625 7.71875 1.703125 
L 7.71875 11.625 
Q 12.109375 9.234375 16.796875 8.0625 
Q 21.484375 6.890625 26.703125 6.890625 
Q 35.15625 6.890625 40.078125 11.328125 
Q 45.015625 15.765625 45.015625 23.390625 
Q 45.015625 31 40.078125 35.4375 
Q 35.15625 39.890625 26.703125 39.890625 
Q 22.75 39.890625 18.8125 39.015625 
Q 14.890625 38.140625 10.796875 36.28125 
z
" id="DejaVuSans-35"/>
      </defs>
      <g transform="translate(398.760272 586.595312)scale(0.1 -0.1)">
       <use xlink:href="#DejaVuSans-2212"/>
       <use x="83.789062" xlink:href="#DejaVuSans-35"/>
       <use x="147.412109" xlink:href="#DejaVuSans-30"/>
      </g>
     </g>
    </g>
    <g id="xtick_3">
     <g id="line2d_3">
      <g>
       <use style="stroke:#000000;stroke-width:0.8;" x="604.291236" xlink:href="#mcedf7be1b6" y="571.996875"/>
      </g>
     </g>
     <g id="text_3">
      <!-- 0 -->
      <g transform="translate(601.109986 586.595312)scale(0.1 -0.1)">
       <use xlink:href="#DejaVuSans-30"/>
      </g>
     </g>
    </g>
    <g id="xtick_4">
     <g id="line2d_4">
      <g>
       <use style="stroke:#000000;stroke-width:0.8;" x="799.269855" xlink:href="#mcedf7be1b6" y="571.996875"/>
      </g>
     </g>
     <g id="text_4">
      <!-- 50 -->
      <g transform="translate(792.907355 586.595312)scale(0.1 -0.1)">
       <use xlink:href="#DejaVuSans-35"/>
       <use x="63.623047" xlink:href="#DejaVuSans-30"/>
      </g>
     </g>
    </g>
    <g id="xtick_5">
     <g id="line2d_5">
      <g>
       <use style="stroke:#000000;stroke-width:0.8;" x="994.248475" xlink:href="#mcedf7be1b6" y="571.996875"/>
      </g>
     </g>
     <g id="text_5">
      <!-- 100 -->
      <g transform="translate(984.704725 586.595312)scale(0.1 -0.1)">
       <use xlink:href="#DejaVuSans-31"/>
       <use x="63.623047" xlink:href="#DejaVuSans-30"/>
       <use x="127.246094" xlink:href="#DejaVuSans-30"/>
      </g>
     </g>
    </g>
   </g>
   <g id="matplotlib.axis_2">
    <g id="ytick_1">
     <g id="line2d_6">
      <defs>
       <path d="M 0 0 
L -3.5 0 
" id="m685a9d61c5" style="stroke:#000000;stroke-width:0.8;"/>
      </defs>
      <g>
       <use style="stroke:#000000;stroke-width:0.8;" x="41.667187" xlink:href="#m685a9d61c5" y="508.684425"/>
      </g>
     </g>
     <g id="text_6">
      <!-- −100 -->
      <g transform="translate(7.2 512.483643)scale(0.1 -0.1)">
       <use xlink:href="#DejaVuSans-2212"/>
       <use x="83.789062" xlink:href="#DejaVuSans-31"/>
       <use x="147.412109" xlink:href="#DejaVuSans-30"/>
       <use x="211.035156" xlink:href="#DejaVuSans-30"/>
      </g>
     </g>
    </g>
    <g id="ytick_2">
     <g id="line2d_7">
      <g>
       <use style="stroke:#000000;stroke-width:0.8;" x="41.667187" xlink:href="#m685a9d61c5" y="393.13385"/>
      </g>
     </g>
     <g id="text_7">
      <!-- −50 -->
      <g transform="translate(13.5625 396.933069)scale(0.1 -0.1)">
       <use xlink:href="#DejaVuSans-2212"/>
       <use x="83.789062" xlink:href="#DejaVuSans-35"/>
       <use x="147.412109" xlink:href="#DejaVuSans-30"/>
      </g>
     </g>
    </g>
    <g id="ytick_3">
     <g id="line2d_8">
      <g>
       <use style="stroke:#000000;stroke-width:0.8;" x="41.667187" xlink:href="#m685a9d61c5" y="277.583275"/>
      </g>
     </g>
     <g id="text_8">
      <!-- 0 -->
      <g transform="translate(28.304687 281.382494)scale(0.1 -0.1)">
       <use xlink:href="#DejaVuSans-30"/>
      </g>
     </g>
    </g>
    <g id="ytick_4">
     <g id="line2d_9">
      <g>
       <use style="stroke:#000000;stroke-width:0.8;" x="41.667187" xlink:href="#m685a9d61c5" y="162.0327"/>
      </g>
     </g>
     <g id="text_9">
      <!-- 50 -->
      <g transform="translate(21.942187 165.831919)scale(0.1 -0.1)">
       <use xlink:href="#DejaVuSans-35"/>
       <use x="63.623047" xlink:href="#DejaVuSans-30"/>
      </g>
     </g>
    </g>
    <g id="ytick_5">
     <g id="line2d_10">
      <g>
       <use style="stroke:#000000;stroke-width:0.8;" x="41.667187" xlink:href="#m685a9d61c5" y="46.482126"/>
      </g>
     </g>
     <g id="text_10">
      <!-- 100 -->
      <g transform="translate(15.579687 50.281345)scale(0.1 -0.1)">
       <use xlink:href="#DejaVuSans-31"/>
       <use x="63.623047" xlink:href="#DejaVuSans-30"/>
       <use x="127.246094" xlink:href="#DejaVuSans-30"/>
      </g>
     </g>
    </g>
   </g>
   <g id="patch_3">
    <path d="M 41.667187 571.996875 
L 41.667187 28.396875 
" style="fill:none;stroke:#000000;stroke-linecap:square;stroke-linejoin:miter;stroke-width:0.8;"/>
   </g>
   <g id="patch_4">
    <path d="M 1157.667187 571.996875 
L 1157.667187 28.396875 
" style="fill:none;stroke:#000000;stroke-linecap:square;stroke-linejoin:miter;stroke-width:0.8;"/>
   </g>
   <g id="patch_5">
    <path d="M 41.667187 571.996875 
L 1157.667187 571.996875 
" style="fill:none;stroke:#000000;stroke-linecap:square;stroke-linejoin:miter;stroke-width:0.8;"/>
   </g>
   <g id="patch_6">
    <path d="M 41.667187 28.396875 
L 1157.667187 28.396875 
" style="fill:none;stroke:#000000;stroke-linecap:square;stroke-linejoin:miter;stroke-width:0.8;"/>
   </g>
   <g id="text_11">
    <!-- Jamaika -->
    <defs>
     <path d="M 9.8125 72.90625 
L 19.671875 72.90625 
L 19.671875 5.078125 
Q 19.671875 -8.109375 14.671875 -14.0625 
Q 9.671875 -20.015625 -1.421875 -20.015625 
L -5.171875 -20.015625 
L -5.171875 -11.71875 
L -2.09375 -11.71875 
Q 4.4375 -11.71875 7.125 -8.046875 
Q 9.8125 -4.390625 9.8125 5.078125 
z
" id="DejaVuSans-4a"/>
     <path d="M 34.28125 27.484375 
Q 23.390625 27.484375 19.1875 25 
Q 14.984375 22.515625 14.984375 16.5 
Q 14.984375 11.71875 18.140625 8.90625 
Q 21.296875 6.109375 26.703125 6.109375 
Q 34.1875 6.109375 38.703125 11.40625 
Q 43.21875 16.703125 43.21875 25.484375 
L 43.21875 27.484375 
z
M 52.203125 31.203125 
L 52.203125 0 
L 43.21875 0 
L 43.21875 8.296875 
Q 40.140625 3.328125 35.546875 0.953125 
Q 30.953125 -1.421875 24.3125 -1.421875 
Q 15.921875 -1.421875 10.953125 3.296875 
Q 6 8.015625 6 15.921875 
Q 6 25.140625 12.171875 29.828125 
Q 18.359375 34.515625 30.609375 34.515625 
L 43.21875 34.515625 
L 43.21875 35.40625 
Q 43.21875 41.609375 39.140625 45 
Q 35.0625 48.390625 27.6875 48.390625 
Q 23 48.390625 18.546875 47.265625 
Q 14.109375 46.140625 10.015625 43.890625 
L 10.015625 52.203125 
Q 14.9375 54.109375 19.578125 55.046875 
Q 24.21875 56 28.609375 56 
Q 40.484375 56 46.34375 49.84375 
Q 52.203125 43.703125 52.203125 31.203125 
z
" id="DejaVuSans-61"/>
     <path d="M 52 44.1875 
Q 55.375 50.25 60.0625 53.125 
Q 64.75 56 71.09375 56 
Q 79.640625 56 84.28125 50.015625 
Q 88.921875 44.046875 88.921875 33.015625 
L 88.921875 0 
L 79.890625 0 
L 79.890625 32.71875 
Q 79.890625 40.578125 77.09375 44.375 
Q 74.3125 48.1875 68.609375 48.1875 
Q 61.625 48.1875 57.5625 43.546875 
Q 53.515625 38.921875 53.515625 30.90625 
L 53.515625 0 
L 44.484375 0 
L 44.484375 32.71875 
Q 44.484375 40.625 41.703125 44.40625 
Q 38.921875 48.1875 33.109375 48.1875 
Q 26.21875 48.1875 22.15625 43.53125 
Q 18.109375 38.875 18.109375 30.90625 
L 18.109375 0 
L 9.078125 0 
L 9.078125 54.6875 
L 18.109375 54.6875 
L 18.109375 46.1875 
Q 21.1875 51.21875 25.484375 53.609375 
Q 29.78125 56 35.6875 56 
Q 41.65625 56 45.828125 52.96875 
Q 50 49.953125 52 44.1875 
z
" id="DejaVuSans-6d"/>
     <path d="M 9.421875 54.6875 
L 18.40625 54.6875 
L 18.40625 0 
L 9.421875 0 
z
M 9.421875 75.984375 
L 18.40625 75.984375 
L 18.40625 64.59375 
L 9.421875 64.59375 
z
" id="DejaVuSans-69"/>
     <path d="M 9.078125 75.984375 
L 18.109375 75.984375 
L 18.109375 31.109375 
L 44.921875 54.6875 
L 56.390625 54.6875 
L 27.390625 29.109375 
L 57.625 0 
L 45.90625 0 
L 18.109375 26.703125 
L 18.109375 0 
L 9.078125 0 
z
" id="DejaVuSans-6b"/>
    </defs>
    <g transform="translate(767.824346 388.463825)scale(0.1 -0.1)">
     <use xlink:href="#DejaVuSans-4a"/>
     <use x="29.492188" xlink:href="#DejaVuSans-61"/>
     <use x="90.771484" xlink:href="#DejaVuSans-6d"/>
     <use x="188.183594" xlink:href="#DejaVuSans-61"/>
     <use x="249.462891" xlink:href="#DejaVuSans-69"/>
     <use x="277.246094" xlink:href="#DejaVuSans-6b"/>
     <use x="335.140625" xlink:href="#DejaVuSans-61"/>
    </g>
   </g>
   <g id="text_12">
    <!-- Osten -->
    <defs>
     <path d="M 39.40625 66.21875 
Q 28.65625 66.21875 22.328125 58.203125 
Q 16.015625 50.203125 16.015625 36.375 
Q 16.015625 22.609375 22.328125 14.59375 
Q 28.65625 6.59375 39.40625 6.59375 
Q 50.140625 6.59375 56.421875 14.59375 
Q 62.703125 22.609375 62.703125 36.375 
Q 62.703125 50.203125 56.421875 58.203125 
Q 50.140625 66.21875 39.40625 66.21875 
z
M 39.40625 74.21875 
Q 54.734375 74.21875 63.90625 63.9375 
Q 73.09375 53.65625 73.09375 36.375 
Q 73.09375 19.140625 63.90625 8.859375 
Q 54.734375 -1.421875 39.40625 -1.421875 
Q 24.03125 -1.421875 14.8125 8.828125 
Q 5.609375 19.09375 5.609375 36.375 
Q 5.609375 53.65625 14.8125 63.9375 
Q 24.03125 74.21875 39.40625 74.21875 
z
" id="DejaVuSans-4f"/>
     <path d="M 44.28125 53.078125 
L 44.28125 44.578125 
Q 40.484375 46.53125 36.375 47.5 
Q 32.28125 48.484375 27.875 48.484375 
Q 21.1875 48.484375 17.84375 46.4375 
Q 14.5 44.390625 14.5 40.28125 
Q 14.5 37.15625 16.890625 35.375 
Q 19.28125 33.59375 26.515625 31.984375 
L 29.59375 31.296875 
Q 39.15625 29.25 43.1875 25.515625 
Q 47.21875 21.78125 47.21875 15.09375 
Q 47.21875 7.46875 41.1875 3.015625 
Q 35.15625 -1.421875 24.609375 -1.421875 
Q 20.21875 -1.421875 15.453125 -0.5625 
Q 10.6875 0.296875 5.421875 2 
L 5.421875 11.28125 
Q 10.40625 8.6875 15.234375 7.390625 
Q 20.0625 6.109375 24.8125 6.109375 
Q 31.15625 6.109375 34.5625 8.28125 
Q 37.984375 10.453125 37.984375 14.40625 
Q 37.984375 18.0625 35.515625 20.015625 
Q 33.0625 21.96875 24.703125 23.78125 
L 21.578125 24.515625 
Q 13.234375 26.265625 9.515625 29.90625 
Q 5.8125 33.546875 5.8125 39.890625 
Q 5.8125 47.609375 11.28125 51.796875 
Q 16.75 56 26.8125 56 
Q 31.78125 56 36.171875 55.265625 
Q 40.578125 54.546875 44.28125 53.078125 
z
" id="DejaVuSans-73"/>
     <path d="M 18.3125 70.21875 
L 18.3125 54.6875 
L 36.8125 54.6875 
L 36.8125 47.703125 
L 18.3125 47.703125 
L 18.3125 18.015625 
Q 18.3125 11.328125 20.140625 9.421875 
Q 21.96875 7.515625 27.59375 7.515625 
L 36.8125 7.515625 
L 36.8125 0 
L 27.59375 0 
Q 17.1875 0 13.234375 3.875 
Q 9.28125 7.765625 9.28125 18.015625 
L 9.28125 47.703125 
L 2.6875 47.703125 
L 2.6875 54.6875 
L 9.28125 54.6875 
L 9.28125 70.21875 
z
" id="DejaVuSans-74"/>
     <path d="M 56.203125 29.59375 
L 56.203125 25.203125 
L 14.890625 25.203125 
Q 15.484375 15.921875 20.484375 11.0625 
Q 25.484375 6.203125 34.421875 6.203125 
Q 39.59375 6.203125 44.453125 7.46875 
Q 49.3125 8.734375 54.109375 11.28125 
L 54.109375 2.78125 
Q 49.265625 0.734375 44.1875 -0.34375 
Q 39.109375 -1.421875 33.890625 -1.421875 
Q 20.796875 -1.421875 13.15625 6.1875 
Q 5.515625 13.8125 5.515625 26.8125 
Q 5.515625 40.234375 12.765625 48.109375 
Q 20.015625 56 32.328125 56 
Q 43.359375 56 49.78125 48.890625 
Q 56.203125 41.796875 56.203125 29.59375 
z
M 47.21875 32.234375 
Q 47.125 39.59375 43.09375 43.984375 
Q 39.0625 48.390625 32.421875 48.390625 
Q 24.90625 48.390625 20.390625 44.140625 
Q 15.875 39.890625 15.1875 32.171875 
z
" id="DejaVuSans-65"/>
     <path d="M 54.890625 33.015625 
L 54.890625 0 
L 45.90625 0 
L 45.90625 32.71875 
Q 45.90625 40.484375 42.875 44.328125 
Q 39.84375 48.1875 33.796875 48.1875 
Q 26.515625 48.1875 22.3125 43.546875 
Q 18.109375 38.921875 18.109375 30.90625 
L 18.109375 0 
L 9.078125 0 
L 9.078125 54.6875 
L 18.109375 54.6875 
L 18.109375 46.1875 
Q 21.34375 51.125 25.703125 53.5625 
Q 30.078125 56 35.796875 56 
Q 45.21875 56 50.046875 50.171875 
Q 54.890625 44.34375 54.890625 33.015625 
z
" id="DejaVuSans-6e"/>
    </defs>
    <g transform="translate(803.959773 226.864642)scale(0.1 -0.1)">
     <use xlink:href="#DejaVuSans-4f"/>
     <use x="78.710938" xlink:href="#DejaVuSans-73"/>
     <use x="130.810547" xlink:href="#DejaVuSans-74"/>
     <use x="170.019531" xlink:href="#DejaVuSans-65"/>
     <use x="231.542969" xlink:href="#DejaVuSans-6e"/>
    </g>
   </g>
   <g id="text_13">
    <!-- Westen -->
    <defs>
     <path d="M 3.328125 72.90625 
L 13.28125 72.90625 
L 28.609375 11.28125 
L 43.890625 72.90625 
L 54.984375 72.90625 
L 70.3125 11.28125 
L 85.59375 72.90625 
L 95.609375 72.90625 
L 77.296875 0 
L 64.890625 0 
L 49.515625 63.28125 
L 33.984375 0 
L 21.578125 0 
z
" id="DejaVuSans-57"/>
    </defs>
    <g transform="translate(732.165566 223.860496)scale(0.1 -0.1)">
     <use xlink:href="#DejaVuSans-57"/>
     <use x="98.798828" xlink:href="#DejaVuSans-65"/>
     <use x="160.322266" xlink:href="#DejaVuSans-73"/>
     <use x="212.421875" xlink:href="#DejaVuSans-74"/>
     <use x="251.630859" xlink:href="#DejaVuSans-65"/>
     <use x="313.154297" xlink:href="#DejaVuSans-6e"/>
    </g>
   </g>
   <g id="text_14">
    <!-- Deutschland -->
    <defs>
     <path d="M 19.671875 64.796875 
L 19.671875 8.109375 
L 31.59375 8.109375 
Q 46.6875 8.109375 53.6875 14.9375 
Q 60.6875 21.78125 60.6875 36.53125 
Q 60.6875 51.171875 53.6875 57.984375 
Q 46.6875 64.796875 31.59375 64.796875 
z
M 9.8125 72.90625 
L 30.078125 72.90625 
Q 51.265625 72.90625 61.171875 64.09375 
Q 71.09375 55.28125 71.09375 36.53125 
Q 71.09375 17.671875 61.125 8.828125 
Q 51.171875 0 30.078125 0 
L 9.8125 0 
z
" id="DejaVuSans-44"/>
     <path d="M 8.5 21.578125 
L 8.5 54.6875 
L 17.484375 54.6875 
L 17.484375 21.921875 
Q 17.484375 14.15625 20.5 10.265625 
Q 23.53125 6.390625 29.59375 6.390625 
Q 36.859375 6.390625 41.078125 11.03125 
Q 45.3125 15.671875 45.3125 23.6875 
L 45.3125 54.6875 
L 54.296875 54.6875 
L 54.296875 0 
L 45.3125 0 
L 45.3125 8.40625 
Q 42.046875 3.421875 37.71875 1 
Q 33.40625 -1.421875 27.6875 -1.421875 
Q 18.265625 -1.421875 13.375 4.4375 
Q 8.5 10.296875 8.5 21.578125 
z
M 31.109375 56 
z
" id="DejaVuSans-75"/>
     <path d="M 48.78125 52.59375 
L 48.78125 44.1875 
Q 44.96875 46.296875 41.140625 47.34375 
Q 37.3125 48.390625 33.40625 48.390625 
Q 24.65625 48.390625 19.8125 42.84375 
Q 14.984375 37.3125 14.984375 27.296875 
Q 14.984375 17.28125 19.8125 11.734375 
Q 24.65625 6.203125 33.40625 6.203125 
Q 37.3125 6.203125 41.140625 7.25 
Q 44.96875 8.296875 48.78125 10.40625 
L 48.78125 2.09375 
Q 45.015625 0.34375 40.984375 -0.53125 
Q 36.96875 -1.421875 32.421875 -1.421875 
Q 20.0625 -1.421875 12.78125 6.34375 
Q 5.515625 14.109375 5.515625 27.296875 
Q 5.515625 40.671875 12.859375 48.328125 
Q 20.21875 56 33.015625 56 
Q 37.15625 56 41.109375 55.140625 
Q 45.0625 54.296875 48.78125 52.59375 
z
" id="DejaVuSans-63"/>
     <path d="M 54.890625 33.015625 
L 54.890625 0 
L 45.90625 0 
L 45.90625 32.71875 
Q 45.90625 40.484375 42.875 44.328125 
Q 39.84375 48.1875 33.796875 48.1875 
Q 26.515625 48.1875 22.3125 43.546875 
Q 18.109375 38.921875 18.109375 30.90625 
L 18.109375 0 
L 9.078125 0 
L 9.078125 75.984375 
L 18.109375 75.984375 
L 18.109375 46.1875 
Q 21.34375 51.125 25.703125 53.5625 
Q 30.078125 56 35.796875 56 
Q 45.21875 56 50.046875 50.171875 
Q 54.890625 44.34375 54.890625 33.015625 
z
" id="DejaVuSans-68"/>
     <path d="M 9.421875 75.984375 
L 18.40625 75.984375 
L 18.40625 0 
L 9.421875 0 
z
" id="DejaVuSans-6c"/>
     <path d="M 45.40625 46.390625 
L 45.40625 75.984375 
L 54.390625 75.984375 
L 54.390625 0 
L 45.40625 0 
L 45.40625 8.203125 
Q 42.578125 3.328125 38.25 0.953125 
Q 33.9375 -1.421875 27.875 -1.421875 
Q 17.96875 -1.421875 11.734375 6.484375 
Q 5.515625 14.40625 5.515625 27.296875 
Q 5.515625 40.1875 11.734375 48.09375 
Q 17.96875 56 27.875 56 
Q 33.9375 56 38.25 53.625 
Q 42.578125 51.265625 45.40625 46.390625 
z
M 14.796875 27.296875 
Q 14.796875 17.390625 18.875 11.75 
Q 22.953125 6.109375 30.078125 6.109375 
Q 37.203125 6.109375 41.296875 11.75 
Q 45.40625 17.390625 45.40625 27.296875 
Q 45.40625 37.203125 41.296875 42.84375 
Q 37.203125 48.484375 30.078125 48.484375 
Q 22.953125 48.484375 18.875 42.84375 
Q 14.796875 37.203125 14.796875 27.296875 
z
" id="DejaVuSans-64"/>
    </defs>
    <g transform="translate(1106.929432 211.690889)scale(0.1 -0.1)">
     <use xlink:href="#DejaVuSans-44"/>
     <use x="77.001953" xlink:href="#DejaVuSans-65"/>
     <use x="138.525391" xlink:href="#DejaVuSans-75"/>
     <use x="201.904297" xlink:href="#DejaVuSans-74"/>
     <use x="241.113281" xlink:href="#DejaVuSans-73"/>
     <use x="293.212891" xlink:href="#DejaVuSans-63"/>
     <use x="348.193359" xlink:href="#DejaVuSans-68"/>
     <use x="411.572266" xlink:href="#DejaVuSans-6c"/>
     <use x="439.355469" xlink:href="#DejaVuSans-61"/>
     <use x="500.634766" xlink:href="#DejaVuSans-6e"/>
     <use x="564.013672" xlink:href="#DejaVuSans-64"/>
    </g>
   </g>
   <g id="text_15">
    <!-- Sozial -->
    <defs>
     <path d="M 53.515625 70.515625 
L 53.515625 60.890625 
Q 47.90625 63.578125 42.921875 64.890625 
Q 37.9375 66.21875 33.296875 66.21875 
Q 25.25 66.21875 20.875 63.09375 
Q 16.5 59.96875 16.5 54.203125 
Q 16.5 49.359375 19.40625 46.890625 
Q 22.3125 44.4375 30.421875 42.921875 
L 36.375 41.703125 
Q 47.40625 39.59375 52.65625 34.296875 
Q 57.90625 29 57.90625 20.125 
Q 57.90625 9.515625 50.796875 4.046875 
Q 43.703125 -1.421875 29.984375 -1.421875 
Q 24.8125 -1.421875 18.96875 -0.25 
Q 13.140625 0.921875 6.890625 3.21875 
L 6.890625 13.375 
Q 12.890625 10.015625 18.65625 8.296875 
Q 24.421875 6.59375 29.984375 6.59375 
Q 38.421875 6.59375 43.015625 9.90625 
Q 47.609375 13.234375 47.609375 19.390625 
Q 47.609375 24.75 44.3125 27.78125 
Q 41.015625 30.8125 33.5 32.328125 
L 27.484375 33.5 
Q 16.453125 35.6875 11.515625 40.375 
Q 6.59375 45.0625 6.59375 53.421875 
Q 6.59375 63.09375 13.40625 68.65625 
Q 20.21875 74.21875 32.171875 74.21875 
Q 37.3125 74.21875 42.625 73.28125 
Q 47.953125 72.359375 53.515625 70.515625 
z
" id="DejaVuSans-53"/>
     <path d="M 30.609375 48.390625 
Q 23.390625 48.390625 19.1875 42.75 
Q 14.984375 37.109375 14.984375 27.296875 
Q 14.984375 17.484375 19.15625 11.84375 
Q 23.34375 6.203125 30.609375 6.203125 
Q 37.796875 6.203125 41.984375 11.859375 
Q 46.1875 17.53125 46.1875 27.296875 
Q 46.1875 37.015625 41.984375 42.703125 
Q 37.796875 48.390625 30.609375 48.390625 
z
M 30.609375 56 
Q 42.328125 56 49.015625 48.375 
Q 55.71875 40.765625 55.71875 27.296875 
Q 55.71875 13.875 49.015625 6.21875 
Q 42.328125 -1.421875 30.609375 -1.421875 
Q 18.84375 -1.421875 12.171875 6.21875 
Q 5.515625 13.875 5.515625 27.296875 
Q 5.515625 40.765625 12.171875 48.375 
Q 18.84375 56 30.609375 56 
z
" id="DejaVuSans-6f"/>
     <path d="M 5.515625 54.6875 
L 48.1875 54.6875 
L 48.1875 46.484375 
L 14.40625 7.171875 
L 48.1875 7.171875 
L 48.1875 0 
L 4.296875 0 
L 4.296875 8.203125 
L 38.09375 47.515625 
L 5.515625 47.515625 
z
" id="DejaVuSans-7a"/>
    </defs>
    <g transform="translate(883.375121 383.051482)scale(0.1 -0.1)">
     <use xlink:href="#DejaVuSans-53"/>
     <use x="63.476562" xlink:href="#DejaVuSans-6f"/>
     <use x="124.658203" xlink:href="#DejaVuSans-7a"/>
     <use x="177.148438" xlink:href="#DejaVuSans-69"/>
     <use x="204.931641" xlink:href="#DejaVuSans-61"/>
     <use x="266.210938" xlink:href="#DejaVuSans-6c"/>
    </g>
   </g>
   <g id="text_16">
    <!-- National -->
    <defs>
     <path d="M 9.8125 72.90625 
L 23.09375 72.90625 
L 55.421875 11.921875 
L 55.421875 72.90625 
L 64.984375 72.90625 
L 64.984375 0 
L 51.703125 0 
L 19.390625 60.984375 
L 19.390625 0 
L 9.8125 0 
z
" id="DejaVuSans-4e"/>
    </defs>
    <g transform="translate(653.089841 335.615539)scale(0.1 -0.1)">
     <use xlink:href="#DejaVuSans-4e"/>
     <use x="74.804688" xlink:href="#DejaVuSans-61"/>
     <use x="136.083984" xlink:href="#DejaVuSans-74"/>
     <use x="175.292969" xlink:href="#DejaVuSans-69"/>
     <use x="203.076172" xlink:href="#DejaVuSans-6f"/>
     <use x="264.257812" xlink:href="#DejaVuSans-6e"/>
     <use x="327.636719" xlink:href="#DejaVuSans-61"/>
     <use x="388.916016" xlink:href="#DejaVuSans-6c"/>
    </g>
   </g>
   <g id="text_17">
    <!-- Polnisch -->
    <defs>
     <path d="M 19.671875 64.796875 
L 19.671875 37.40625 
L 32.078125 37.40625 
Q 38.96875 37.40625 42.71875 40.96875 
Q 46.484375 44.53125 46.484375 51.125 
Q 46.484375 57.671875 42.71875 61.234375 
Q 38.96875 64.796875 32.078125 64.796875 
z
M 9.8125 72.90625 
L 32.078125 72.90625 
Q 44.34375 72.90625 50.609375 67.359375 
Q 56.890625 61.8125 56.890625 51.125 
Q 56.890625 40.328125 50.609375 34.8125 
Q 44.34375 29.296875 32.078125 29.296875 
L 19.671875 29.296875 
L 19.671875 0 
L 9.8125 0 
z
" id="DejaVuSans-50"/>
    </defs>
    <g transform="translate(605.716844 181.579095)scale(0.1 -0.1)">
     <use xlink:href="#DejaVuSans-50"/>
     <use x="60.255859" xlink:href="#DejaVuSans-6f"/>
     <use x="121.4375" xlink:href="#DejaVuSans-6c"/>
     <use x="149.220703" xlink:href="#DejaVuSans-6e"/>
     <use x="212.599609" xlink:href="#DejaVuSans-69"/>
     <use x="240.382812" xlink:href="#DejaVuSans-73"/>
     <use x="292.482422" xlink:href="#DejaVuSans-63"/>
     <use x="347.462891" xlink:href="#DejaVuSans-68"/>
    </g>
   </g>
   <g id="text_18">
    <!-- Russland -->
    <defs>
     <path d="M 44.390625 34.1875 
Q 47.5625 33.109375 50.5625 29.59375 
Q 53.5625 26.078125 56.59375 19.921875 
L 66.609375 0 
L 56 0 
L 46.6875 18.703125 
Q 43.0625 26.03125 39.671875 28.421875 
Q 36.28125 30.8125 30.421875 30.8125 
L 19.671875 30.8125 
L 19.671875 0 
L 9.8125 0 
L 9.8125 72.90625 
L 32.078125 72.90625 
Q 44.578125 72.90625 50.734375 67.671875 
Q 56.890625 62.453125 56.890625 51.90625 
Q 56.890625 45.015625 53.6875 40.46875 
Q 50.484375 35.9375 44.390625 34.1875 
z
M 19.671875 64.796875 
L 19.671875 38.921875 
L 32.078125 38.921875 
Q 39.203125 38.921875 42.84375 42.21875 
Q 46.484375 45.515625 46.484375 51.90625 
Q 46.484375 58.296875 42.84375 61.546875 
Q 39.203125 64.796875 32.078125 64.796875 
z
" id="DejaVuSans-52"/>
    </defs>
    <g transform="translate(665.162336 387.119828)scale(0.1 -0.1)">
     <use xlink:href="#DejaVuSans-52"/>
     <use x="69.419922" xlink:href="#DejaVuSans-75"/>
     <use x="132.798828" xlink:href="#DejaVuSans-73"/>
     <use x="184.898438" xlink:href="#DejaVuSans-73"/>
     <use x="236.998047" xlink:href="#DejaVuSans-6c"/>
     <use x="264.78125" xlink:href="#DejaVuSans-61"/>
     <use x="326.060547" xlink:href="#DejaVuSans-6e"/>
     <use x="389.439453" xlink:href="#DejaVuSans-64"/>
    </g>
   </g>
   <g id="text_19">
    <!-- Infrastruktur -->
    <defs>
     <path d="M 9.8125 72.90625 
L 19.671875 72.90625 
L 19.671875 0 
L 9.8125 0 
z
" id="DejaVuSans-49"/>
     <path d="M 37.109375 75.984375 
L 37.109375 68.5 
L 28.515625 68.5 
Q 23.6875 68.5 21.796875 66.546875 
Q 19.921875 64.59375 19.921875 59.515625 
L 19.921875 54.6875 
L 34.71875 54.6875 
L 34.71875 47.703125 
L 19.921875 47.703125 
L 19.921875 0 
L 10.890625 0 
L 10.890625 47.703125 
L 2.296875 47.703125 
L 2.296875 54.6875 
L 10.890625 54.6875 
L 10.890625 58.5 
Q 10.890625 67.625 15.140625 71.796875 
Q 19.390625 75.984375 28.609375 75.984375 
z
" id="DejaVuSans-66"/>
     <path d="M 41.109375 46.296875 
Q 39.59375 47.171875 37.8125 47.578125 
Q 36.03125 48 33.890625 48 
Q 26.265625 48 22.1875 43.046875 
Q 18.109375 38.09375 18.109375 28.8125 
L 18.109375 0 
L 9.078125 0 
L 9.078125 54.6875 
L 18.109375 54.6875 
L 18.109375 46.1875 
Q 20.953125 51.171875 25.484375 53.578125 
Q 30.03125 56 36.53125 56 
Q 37.453125 56 38.578125 55.875 
Q 39.703125 55.765625 41.0625 55.515625 
z
" id="DejaVuSans-72"/>
    </defs>
    <g transform="translate(1007.324026 143.2789)scale(0.1 -0.1)">
     <use xlink:href="#DejaVuSans-49"/>
     <use x="29.492188" xlink:href="#DejaVuSans-6e"/>
     <use x="92.871094" xlink:href="#DejaVuSans-66"/>
     <use x="128.076172" xlink:href="#DejaVuSans-72"/>
     <use x="169.189453" xlink:href="#DejaVuSans-61"/>
     <use x="230.46875" xlink:href="#DejaVuSans-73"/>
     <use x="282.568359" xlink:href="#DejaVuSans-74"/>
     <use x="321.777344" xlink:href="#DejaVuSans-72"/>
     <use x="362.890625" xlink:href="#DejaVuSans-75"/>
     <use x="426.269531" xlink:href="#DejaVuSans-6b"/>
     <use x="484.179688" xlink:href="#DejaVuSans-74"/>
     <use x="523.388672" xlink:href="#DejaVuSans-75"/>
     <use x="586.767578" xlink:href="#DejaVuSans-72"/>
    </g>
   </g>
   <g id="text_20">
    <!-- Frank -->
    <defs>
     <path d="M 9.8125 72.90625 
L 51.703125 72.90625 
L 51.703125 64.59375 
L 19.671875 64.59375 
L 19.671875 43.109375 
L 48.578125 43.109375 
L 48.578125 34.8125 
L 19.671875 34.8125 
L 19.671875 0 
L 9.8125 0 
z
" id="DejaVuSans-46"/>
    </defs>
    <g transform="translate(428.40882 287.851522)scale(0.1 -0.1)">
     <use xlink:href="#DejaVuSans-46"/>
     <use x="57.410156" xlink:href="#DejaVuSans-72"/>
     <use x="98.523438" xlink:href="#DejaVuSans-61"/>
     <use x="159.802734" xlink:href="#DejaVuSans-6e"/>
     <use x="223.181641" xlink:href="#DejaVuSans-6b"/>
    </g>
   </g>
   <g id="text_21">
    <!-- Trump -->
    <defs>
     <path d="M -0.296875 72.90625 
L 61.375 72.90625 
L 61.375 64.59375 
L 35.5 64.59375 
L 35.5 0 
L 25.59375 0 
L 25.59375 64.59375 
L -0.296875 64.59375 
z
" id="DejaVuSans-54"/>
     <path d="M 18.109375 8.203125 
L 18.109375 -20.796875 
L 9.078125 -20.796875 
L 9.078125 54.6875 
L 18.109375 54.6875 
L 18.109375 46.390625 
Q 20.953125 51.265625 25.265625 53.625 
Q 29.59375 56 35.59375 56 
Q 45.5625 56 51.78125 48.09375 
Q 58.015625 40.1875 58.015625 27.296875 
Q 58.015625 14.40625 51.78125 6.484375 
Q 45.5625 -1.421875 35.59375 -1.421875 
Q 29.59375 -1.421875 25.265625 0.953125 
Q 20.953125 3.328125 18.109375 8.203125 
z
M 48.6875 27.296875 
Q 48.6875 37.203125 44.609375 42.84375 
Q 40.53125 48.484375 33.40625 48.484375 
Q 26.265625 48.484375 22.1875 42.84375 
Q 18.109375 37.203125 18.109375 27.296875 
Q 18.109375 17.390625 22.1875 11.75 
Q 26.265625 6.109375 33.40625 6.109375 
Q 40.53125 6.109375 44.609375 11.75 
Q 48.6875 17.390625 48.6875 27.296875 
z
" id="DejaVuSans-70"/>
    </defs>
    <g transform="translate(601.032067 547.27503)scale(0.1 -0.1)">
     <use xlink:href="#DejaVuSans-54"/>
     <use x="60.865234" xlink:href="#DejaVuSans-72"/>
     <use x="101.978516" xlink:href="#DejaVuSans-75"/>
     <use x="165.357422" xlink:href="#DejaVuSans-6d"/>
     <use x="262.769531" xlink:href="#DejaVuSans-70"/>
    </g>
   </g>
   <g id="text_22">
    <!-- Einwohner -->
    <defs>
     <path d="M 9.8125 72.90625 
L 55.90625 72.90625 
L 55.90625 64.59375 
L 19.671875 64.59375 
L 19.671875 43.015625 
L 54.390625 43.015625 
L 54.390625 34.71875 
L 19.671875 34.71875 
L 19.671875 8.296875 
L 56.78125 8.296875 
L 56.78125 0 
L 9.8125 0 
z
" id="DejaVuSans-45"/>
     <path d="M 4.203125 54.6875 
L 13.1875 54.6875 
L 24.421875 12.015625 
L 35.59375 54.6875 
L 46.1875 54.6875 
L 57.421875 12.015625 
L 68.609375 54.6875 
L 77.59375 54.6875 
L 63.28125 0 
L 52.6875 0 
L 40.921875 44.828125 
L 29.109375 0 
L 18.5 0 
z
" id="DejaVuSans-77"/>
    </defs>
    <g transform="translate(665.70033 267.529779)scale(0.1 -0.1)">
     <use xlink:href="#DejaVuSans-45"/>
     <use x="63.183594" xlink:href="#DejaVuSans-69"/>
     <use x="90.966797" xlink:href="#DejaVuSans-6e"/>
     <use x="154.345703" xlink:href="#DejaVuSans-77"/>
     <use x="236.132812" xlink:href="#DejaVuSans-6f"/>
     <use x="297.314453" xlink:href="#DejaVuSans-68"/>
     <use x="360.693359" xlink:href="#DejaVuSans-6e"/>
     <use x="424.072266" xlink:href="#DejaVuSans-65"/>
     <use x="485.595703" xlink:href="#DejaVuSans-72"/>
    </g>
   </g>
   <g id="text_23">
    <!-- Global -->
    <defs>
     <path d="M 59.515625 10.40625 
L 59.515625 29.984375 
L 43.40625 29.984375 
L 43.40625 38.09375 
L 69.28125 38.09375 
L 69.28125 6.78125 
Q 63.578125 2.734375 56.6875 0.65625 
Q 49.8125 -1.421875 42 -1.421875 
Q 24.90625 -1.421875 15.25 8.5625 
Q 5.609375 18.5625 5.609375 36.375 
Q 5.609375 54.25 15.25 64.234375 
Q 24.90625 74.21875 42 74.21875 
Q 49.125 74.21875 55.546875 72.453125 
Q 61.96875 70.703125 67.390625 67.28125 
L 67.390625 56.78125 
Q 61.921875 61.421875 55.765625 63.765625 
Q 49.609375 66.109375 42.828125 66.109375 
Q 29.4375 66.109375 22.71875 58.640625 
Q 16.015625 51.171875 16.015625 36.375 
Q 16.015625 21.625 22.71875 14.15625 
Q 29.4375 6.6875 42.828125 6.6875 
Q 48.046875 6.6875 52.140625 7.59375 
Q 56.25 8.5 59.515625 10.40625 
z
" id="DejaVuSans-47"/>
     <path d="M 48.6875 27.296875 
Q 48.6875 37.203125 44.609375 42.84375 
Q 40.53125 48.484375 33.40625 48.484375 
Q 26.265625 48.484375 22.1875 42.84375 
Q 18.109375 37.203125 18.109375 27.296875 
Q 18.109375 17.390625 22.1875 11.75 
Q 26.265625 6.109375 33.40625 6.109375 
Q 40.53125 6.109375 44.609375 11.75 
Q 48.6875 17.390625 48.6875 27.296875 
z
M 18.109375 46.390625 
Q 20.953125 51.265625 25.265625 53.625 
Q 29.59375 56 35.59375 56 
Q 45.5625 56 51.78125 48.09375 
Q 58.015625 40.1875 58.015625 27.296875 
Q 58.015625 14.40625 51.78125 6.484375 
Q 45.5625 -1.421875 35.59375 -1.421875 
Q 29.59375 -1.421875 25.265625 0.953125 
Q 20.953125 3.328125 18.109375 8.203125 
L 18.109375 0 
L 9.078125 0 
L 9.078125 75.984375 
L 18.109375 75.984375 
z
" id="DejaVuSans-62"/>
    </defs>
    <g transform="translate(1096.626322 309.651636)scale(0.1 -0.1)">
     <use xlink:href="#DejaVuSans-47"/>
     <use x="77.490234" xlink:href="#DejaVuSans-6c"/>
     <use x="105.273438" xlink:href="#DejaVuSans-6f"/>
     <use x="166.455078" xlink:href="#DejaVuSans-62"/>
     <use x="229.931641" xlink:href="#DejaVuSans-61"/>
     <use x="291.210938" xlink:href="#DejaVuSans-6c"/>
    </g>
   </g>
   <g id="text_24">
    <!-- Puigdemont -->
    <defs>
     <path d="M 45.40625 27.984375 
Q 45.40625 37.75 41.375 43.109375 
Q 37.359375 48.484375 30.078125 48.484375 
Q 22.859375 48.484375 18.828125 43.109375 
Q 14.796875 37.75 14.796875 27.984375 
Q 14.796875 18.265625 18.828125 12.890625 
Q 22.859375 7.515625 30.078125 7.515625 
Q 37.359375 7.515625 41.375 12.890625 
Q 45.40625 18.265625 45.40625 27.984375 
z
M 54.390625 6.78125 
Q 54.390625 -7.171875 48.1875 -13.984375 
Q 42 -20.796875 29.203125 -20.796875 
Q 24.46875 -20.796875 20.265625 -20.09375 
Q 16.0625 -19.390625 12.109375 -17.921875 
L 12.109375 -9.1875 
Q 16.0625 -11.328125 19.921875 -12.34375 
Q 23.78125 -13.375 27.78125 -13.375 
Q 36.625 -13.375 41.015625 -8.765625 
Q 45.40625 -4.15625 45.40625 5.171875 
L 45.40625 9.625 
Q 42.625 4.78125 38.28125 2.390625 
Q 33.9375 0 27.875 0 
Q 17.828125 0 11.671875 7.65625 
Q 5.515625 15.328125 5.515625 27.984375 
Q 5.515625 40.671875 11.671875 48.328125 
Q 17.828125 56 27.875 56 
Q 33.9375 56 38.28125 53.609375 
Q 42.625 51.21875 45.40625 46.390625 
L 45.40625 54.6875 
L 54.390625 54.6875 
z
" id="DejaVuSans-67"/>
    </defs>
    <g transform="translate(375.188338 434.379707)scale(0.1 -0.1)">
     <use xlink:href="#DejaVuSans-50"/>
     <use x="60.287109" xlink:href="#DejaVuSans-75"/>
     <use x="123.666016" xlink:href="#DejaVuSans-69"/>
     <use x="151.449219" xlink:href="#DejaVuSans-67"/>
     <use x="214.925781" xlink:href="#DejaVuSans-64"/>
     <use x="278.402344" xlink:href="#DejaVuSans-65"/>
     <use x="339.925781" xlink:href="#DejaVuSans-6d"/>
     <use x="437.337891" xlink:href="#DejaVuSans-6f"/>
     <use x="498.519531" xlink:href="#DejaVuSans-6e"/>
     <use x="561.898438" xlink:href="#DejaVuSans-74"/>
    </g>
   </g>
   <g id="text_25">
    <!-- Bayern -->
    <defs>
     <path d="M 19.671875 34.8125 
L 19.671875 8.109375 
L 35.5 8.109375 
Q 43.453125 8.109375 47.28125 11.40625 
Q 51.125 14.703125 51.125 21.484375 
Q 51.125 28.328125 47.28125 31.5625 
Q 43.453125 34.8125 35.5 34.8125 
z
M 19.671875 64.796875 
L 19.671875 42.828125 
L 34.28125 42.828125 
Q 41.5 42.828125 45.03125 45.53125 
Q 48.578125 48.25 48.578125 53.8125 
Q 48.578125 59.328125 45.03125 62.0625 
Q 41.5 64.796875 34.28125 64.796875 
z
M 9.8125 72.90625 
L 35.015625 72.90625 
Q 46.296875 72.90625 52.390625 68.21875 
Q 58.5 63.53125 58.5 54.890625 
Q 58.5 48.1875 55.375 44.234375 
Q 52.25 40.28125 46.1875 39.3125 
Q 53.46875 37.75 57.5 32.78125 
Q 61.53125 27.828125 61.53125 20.40625 
Q 61.53125 10.640625 54.890625 5.3125 
Q 48.25 0 35.984375 0 
L 9.8125 0 
z
" id="DejaVuSans-42"/>
     <path d="M 32.171875 -5.078125 
Q 28.375 -14.84375 24.75 -17.8125 
Q 21.140625 -20.796875 15.09375 -20.796875 
L 7.90625 -20.796875 
L 7.90625 -13.28125 
L 13.1875 -13.28125 
Q 16.890625 -13.28125 18.9375 -11.515625 
Q 21 -9.765625 23.484375 -3.21875 
L 25.09375 0.875 
L 2.984375 54.6875 
L 12.5 54.6875 
L 29.59375 11.921875 
L 46.6875 54.6875 
L 56.203125 54.6875 
z
" id="DejaVuSans-79"/>
    </defs>
    <g transform="translate(490.91391 407.000166)scale(0.1 -0.1)">
     <use xlink:href="#DejaVuSans-42"/>
     <use x="68.603516" xlink:href="#DejaVuSans-61"/>
     <use x="129.882812" xlink:href="#DejaVuSans-79"/>
     <use x="189.0625" xlink:href="#DejaVuSans-65"/>
     <use x="250.585938" xlink:href="#DejaVuSans-72"/>
     <use x="291.683594" xlink:href="#DejaVuSans-6e"/>
    </g>
   </g>
   <g id="text_26">
    <!-- Gesellschaft -->
    <g transform="translate(513.979118 481.86326)scale(0.1 -0.1)">
     <use xlink:href="#DejaVuSans-47"/>
     <use x="77.490234" xlink:href="#DejaVuSans-65"/>
     <use x="139.013672" xlink:href="#DejaVuSans-73"/>
     <use x="191.113281" xlink:href="#DejaVuSans-65"/>
     <use x="252.636719" xlink:href="#DejaVuSans-6c"/>
     <use x="280.419922" xlink:href="#DejaVuSans-6c"/>
     <use x="308.203125" xlink:href="#DejaVuSans-73"/>
     <use x="360.302734" xlink:href="#DejaVuSans-63"/>
     <use x="415.283203" xlink:href="#DejaVuSans-68"/>
     <use x="478.662109" xlink:href="#DejaVuSans-61"/>
     <use x="539.941406" xlink:href="#DejaVuSans-66"/>
     <use x="575.130859" xlink:href="#DejaVuSans-74"/>
    </g>
   </g>
   <g id="text_27">
    <!-- Europa -->
    <g transform="translate(1015.93455 243.184587)scale(0.1 -0.1)">
     <use xlink:href="#DejaVuSans-45"/>
     <use x="63.183594" xlink:href="#DejaVuSans-75"/>
     <use x="126.5625" xlink:href="#DejaVuSans-72"/>
     <use x="167.644531" xlink:href="#DejaVuSans-6f"/>
     <use x="228.826172" xlink:href="#DejaVuSans-70"/>
     <use x="292.302734" xlink:href="#DejaVuSans-61"/>
    </g>
   </g>
   <g id="text_28">
    <!-- York -->
    <defs>
     <path d="M -0.203125 72.90625 
L 10.40625 72.90625 
L 30.609375 42.921875 
L 50.6875 72.90625 
L 61.28125 72.90625 
L 35.5 34.71875 
L 35.5 0 
L 25.59375 0 
L 25.59375 34.71875 
z
" id="DejaVuSans-59"/>
    </defs>
    <g transform="translate(295.002265 399.280056)scale(0.1 -0.1)">
     <use xlink:href="#DejaVuSans-59"/>
     <use x="60.880859" xlink:href="#DejaVuSans-6f"/>
     <use x="122.0625" xlink:href="#DejaVuSans-72"/>
     <use x="163.175781" xlink:href="#DejaVuSans-6b"/>
    </g>
   </g>
   <g id="text_29">
    <!-- Anklage -->
    <defs>
     <path d="M 34.1875 63.1875 
L 20.796875 26.90625 
L 47.609375 26.90625 
z
M 28.609375 72.90625 
L 39.796875 72.90625 
L 67.578125 0 
L 57.328125 0 
L 50.6875 18.703125 
L 17.828125 18.703125 
L 11.1875 0 
L 0.78125 0 
z
" id="DejaVuSans-41"/>
    </defs>
    <g transform="translate(391.50676 367.575691)scale(0.1 -0.1)">
     <use xlink:href="#DejaVuSans-41"/>
     <use x="68.408203" xlink:href="#DejaVuSans-6e"/>
     <use x="131.787109" xlink:href="#DejaVuSans-6b"/>
     <use x="189.697266" xlink:href="#DejaVuSans-6c"/>
     <use x="217.480469" xlink:href="#DejaVuSans-61"/>
     <use x="278.759766" xlink:href="#DejaVuSans-67"/>
     <use x="342.236328" xlink:href="#DejaVuSans-65"/>
    </g>
   </g>
   <g id="text_30">
    <!-- Spacey -->
    <g transform="translate(267.023952 346.997172)scale(0.1 -0.1)">
     <use xlink:href="#DejaVuSans-53"/>
     <use x="63.476562" xlink:href="#DejaVuSans-70"/>
     <use x="126.953125" xlink:href="#DejaVuSans-61"/>
     <use x="188.232422" xlink:href="#DejaVuSans-63"/>
     <use x="243.212891" xlink:href="#DejaVuSans-65"/>
     <use x="304.736328" xlink:href="#DejaVuSans-79"/>
    </g>
   </g>
   <g id="text_31">
    <!-- Zahlung -->
    <defs>
     <path d="M 5.609375 72.90625 
L 62.890625 72.90625 
L 62.890625 65.375 
L 16.796875 8.296875 
L 64.015625 8.296875 
L 64.015625 0 
L 4.5 0 
L 4.5 7.515625 
L 50.59375 64.59375 
L 5.609375 64.59375 
z
" id="DejaVuSans-5a"/>
    </defs>
    <g transform="translate(678.700819 131.87067)scale(0.1 -0.1)">
     <use xlink:href="#DejaVuSans-5a"/>
     <use x="68.505859" xlink:href="#DejaVuSans-61"/>
     <use x="129.785156" xlink:href="#DejaVuSans-68"/>
     <use x="193.164062" xlink:href="#DejaVuSans-6c"/>
     <use x="220.947266" xlink:href="#DejaVuSans-75"/>
     <use x="284.326172" xlink:href="#DejaVuSans-6e"/>
     <use x="347.705078" xlink:href="#DejaVuSans-67"/>
    </g>
   </g>
   <g id="text_32">
    <!-- Krise -->
    <defs>
     <path d="M 9.8125 72.90625 
L 19.671875 72.90625 
L 19.671875 42.09375 
L 52.390625 72.90625 
L 65.09375 72.90625 
L 28.90625 38.921875 
L 67.671875 0 
L 54.6875 0 
L 19.671875 35.109375 
L 19.671875 0 
L 9.8125 0 
z
" id="DejaVuSans-4b"/>
    </defs>
    <g transform="translate(516.625444 318.888537)scale(0.1 -0.1)">
     <use xlink:href="#DejaVuSans-4b"/>
     <use x="65.576172" xlink:href="#DejaVuSans-72"/>
     <use x="106.689453" xlink:href="#DejaVuSans-69"/>
     <use x="134.472656" xlink:href="#DejaVuSans-73"/>
     <use x="186.572266" xlink:href="#DejaVuSans-65"/>
    </g>
   </g>
   <g id="text_33">
    <!-- Heimat -->
    <defs>
     <path d="M 9.8125 72.90625 
L 19.671875 72.90625 
L 19.671875 43.015625 
L 55.515625 43.015625 
L 55.515625 72.90625 
L 65.375 72.90625 
L 65.375 0 
L 55.515625 0 
L 55.515625 34.71875 
L 19.671875 34.71875 
L 19.671875 0 
L 9.8125 0 
z
" id="DejaVuSans-48"/>
    </defs>
    <g transform="translate(510.754143 268.491804)scale(0.1 -0.1)">
     <use xlink:href="#DejaVuSans-48"/>
     <use x="75.195312" xlink:href="#DejaVuSans-65"/>
     <use x="136.71875" xlink:href="#DejaVuSans-69"/>
     <use x="164.501953" xlink:href="#DejaVuSans-6d"/>
     <use x="261.914062" xlink:href="#DejaVuSans-61"/>
     <use x="323.193359" xlink:href="#DejaVuSans-74"/>
    </g>
   </g>
   <g id="text_34">
    <!-- Halloween -->
    <g transform="translate(522.493263 213.264885)scale(0.1 -0.1)">
     <use xlink:href="#DejaVuSans-48"/>
     <use x="75.195312" xlink:href="#DejaVuSans-61"/>
     <use x="136.474609" xlink:href="#DejaVuSans-6c"/>
     <use x="164.257812" xlink:href="#DejaVuSans-6c"/>
     <use x="192.041016" xlink:href="#DejaVuSans-6f"/>
     <use x="253.222656" xlink:href="#DejaVuSans-77"/>
     <use x="335.009766" xlink:href="#DejaVuSans-65"/>
     <use x="396.533203" xlink:href="#DejaVuSans-65"/>
     <use x="458.056641" xlink:href="#DejaVuSans-6e"/>
    </g>
   </g>
   <g id="text_35">
    <!-- Zombies -->
    <g transform="translate(558.881372 132.881411)scale(0.1 -0.1)">
     <use xlink:href="#DejaVuSans-5a"/>
     <use x="68.505859" xlink:href="#DejaVuSans-6f"/>
     <use x="129.6875" xlink:href="#DejaVuSans-6d"/>
     <use x="227.099609" xlink:href="#DejaVuSans-62"/>
     <use x="290.576172" xlink:href="#DejaVuSans-69"/>
     <use x="318.359375" xlink:href="#DejaVuSans-65"/>
     <use x="379.882812" xlink:href="#DejaVuSans-73"/>
    </g>
   </g>
   <g id="text_36">
    <!-- Prasident -->
    <g transform="translate(644.06006 511.889694)scale(0.1 -0.1)">
     <use xlink:href="#DejaVuSans-50"/>
     <use x="60.287109" xlink:href="#DejaVuSans-72"/>
     <use x="101.400391" xlink:href="#DejaVuSans-61"/>
     <use x="162.679688" xlink:href="#DejaVuSans-73"/>
     <use x="214.779297" xlink:href="#DejaVuSans-69"/>
     <use x="242.5625" xlink:href="#DejaVuSans-64"/>
     <use x="306.039062" xlink:href="#DejaVuSans-65"/>
     <use x="367.5625" xlink:href="#DejaVuSans-6e"/>
     <use x="430.941406" xlink:href="#DejaVuSans-74"/>
    </g>
   </g>
   <g id="text_37">
    <!-- Arabisch -->
    <g transform="translate(569.167434 367.512737)scale(0.1 -0.1)">
     <use xlink:href="#DejaVuSans-41"/>
     <use x="68.408203" xlink:href="#DejaVuSans-72"/>
     <use x="109.521484" xlink:href="#DejaVuSans-61"/>
     <use x="170.800781" xlink:href="#DejaVuSans-62"/>
     <use x="234.277344" xlink:href="#DejaVuSans-69"/>
     <use x="262.060547" xlink:href="#DejaVuSans-73"/>
     <use x="314.160156" xlink:href="#DejaVuSans-63"/>
     <use x="369.140625" xlink:href="#DejaVuSans-68"/>
    </g>
   </g>
   <g id="text_38">
    <!-- Ddr -->
    <g transform="translate(352.085993 176.634422)scale(0.1 -0.1)">
     <use xlink:href="#DejaVuSans-44"/>
     <use x="77.001953" xlink:href="#DejaVuSans-64"/>
     <use x="140.478516" xlink:href="#DejaVuSans-72"/>
    </g>
   </g>
   <g id="text_39">
    <!-- Bundesrepublik -->
    <g transform="translate(874.492878 245.060241)scale(0.1 -0.1)">
     <use xlink:href="#DejaVuSans-42"/>
     <use x="68.603516" xlink:href="#DejaVuSans-75"/>
     <use x="131.982422" xlink:href="#DejaVuSans-6e"/>
     <use x="195.361328" xlink:href="#DejaVuSans-64"/>
     <use x="258.837891" xlink:href="#DejaVuSans-65"/>
     <use x="320.361328" xlink:href="#DejaVuSans-73"/>
     <use x="372.460938" xlink:href="#DejaVuSans-72"/>
     <use x="413.542969" xlink:href="#DejaVuSans-65"/>
     <use x="475.066406" xlink:href="#DejaVuSans-70"/>
     <use x="538.542969" xlink:href="#DejaVuSans-75"/>
     <use x="601.921875" xlink:href="#DejaVuSans-62"/>
     <use x="665.398438" xlink:href="#DejaVuSans-6c"/>
     <use x="693.181641" xlink:href="#DejaVuSans-69"/>
     <use x="720.964844" xlink:href="#DejaVuSans-6b"/>
    </g>
   </g>
   <g id="text_40">
    <!-- Russisch -->
    <g transform="translate(625.205351 437.73756)scale(0.1 -0.1)">
     <use xlink:href="#DejaVuSans-52"/>
     <use x="69.419922" xlink:href="#DejaVuSans-75"/>
     <use x="132.798828" xlink:href="#DejaVuSans-73"/>
     <use x="184.898438" xlink:href="#DejaVuSans-73"/>
     <use x="236.998047" xlink:href="#DejaVuSans-69"/>
     <use x="264.78125" xlink:href="#DejaVuSans-73"/>
     <use x="316.880859" xlink:href="#DejaVuSans-63"/>
     <use x="371.861328" xlink:href="#DejaVuSans-68"/>
    </g>
   </g>
   <g id="text_41">
    <!-- Afd -->
    <g transform="translate(769.286879 457.121479)scale(0.1 -0.1)">
     <use xlink:href="#DejaVuSans-41"/>
     <use x="68.361328" xlink:href="#DejaVuSans-66"/>
     <use x="103.566406" xlink:href="#DejaVuSans-64"/>
    </g>
   </g>
   <g id="text_42">
    <!-- Cdu -->
    <defs>
     <path d="M 64.40625 67.28125 
L 64.40625 56.890625 
Q 59.421875 61.53125 53.78125 63.8125 
Q 48.140625 66.109375 41.796875 66.109375 
Q 29.296875 66.109375 22.65625 58.46875 
Q 16.015625 50.828125 16.015625 36.375 
Q 16.015625 21.96875 22.65625 14.328125 
Q 29.296875 6.6875 41.796875 6.6875 
Q 48.140625 6.6875 53.78125 8.984375 
Q 59.421875 11.28125 64.40625 15.921875 
L 64.40625 5.609375 
Q 59.234375 2.09375 53.4375 0.328125 
Q 47.65625 -1.421875 41.21875 -1.421875 
Q 24.65625 -1.421875 15.125 8.703125 
Q 5.609375 18.84375 5.609375 36.375 
Q 5.609375 53.953125 15.125 64.078125 
Q 24.65625 74.21875 41.21875 74.21875 
Q 47.75 74.21875 53.53125 72.484375 
Q 59.328125 70.75 64.40625 67.28125 
z
" id="DejaVuSans-43"/>
    </defs>
    <g transform="translate(837.458052 527.894796)scale(0.1 -0.1)">
     <use xlink:href="#DejaVuSans-43"/>
     <use x="69.824219" xlink:href="#DejaVuSans-64"/>
     <use x="133.300781" xlink:href="#DejaVuSans-75"/>
    </g>
   </g>
   <g id="text_43">
    <!-- Csu -->
    <g transform="translate(881.372348 485.154554)scale(0.1 -0.1)">
     <use xlink:href="#DejaVuSans-43"/>
     <use x="69.824219" xlink:href="#DejaVuSans-73"/>
     <use x="121.923828" xlink:href="#DejaVuSans-75"/>
    </g>
   </g>
   <g id="text_44">
    <!-- Fdp -->
    <g transform="translate(991.141241 537.763583)scale(0.1 -0.1)">
     <use xlink:href="#DejaVuSans-46"/>
     <use x="57.519531" xlink:href="#DejaVuSans-64"/>
     <use x="120.996094" xlink:href="#DejaVuSans-70"/>
    </g>
   </g>
   <g id="text_45">
    <!-- Grunen -->
    <g transform="translate(966.29072 492.20572)scale(0.1 -0.1)">
     <use xlink:href="#DejaVuSans-47"/>
     <use x="77.490234" xlink:href="#DejaVuSans-72"/>
     <use x="118.603516" xlink:href="#DejaVuSans-75"/>
     <use x="181.982422" xlink:href="#DejaVuSans-6e"/>
     <use x="245.361328" xlink:href="#DejaVuSans-65"/>
     <use x="306.884766" xlink:href="#DejaVuSans-6e"/>
    </g>
   </g>
   <g id="text_46">
    <!-- Spd -->
    <g transform="translate(743.229508 539.65341)scale(0.1 -0.1)">
     <use xlink:href="#DejaVuSans-53"/>
     <use x="63.476562" xlink:href="#DejaVuSans-70"/>
     <use x="126.953125" xlink:href="#DejaVuSans-64"/>
    </g>
   </g>
   <g id="text_47">
    <!-- Alternativ -->
    <defs>
     <path d="M 2.984375 54.6875 
L 12.5 54.6875 
L 29.59375 8.796875 
L 46.6875 54.6875 
L 56.203125 54.6875 
L 35.6875 0 
L 23.484375 0 
z
" id="DejaVuSans-76"/>
    </defs>
    <g transform="translate(598.406656 53.11872)scale(0.1 -0.1)">
     <use xlink:href="#DejaVuSans-41"/>
     <use x="68.408203" xlink:href="#DejaVuSans-6c"/>
     <use x="96.191406" xlink:href="#DejaVuSans-74"/>
     <use x="135.400391" xlink:href="#DejaVuSans-65"/>
     <use x="196.923828" xlink:href="#DejaVuSans-72"/>
     <use x="238.021484" xlink:href="#DejaVuSans-6e"/>
     <use x="301.400391" xlink:href="#DejaVuSans-61"/>
     <use x="362.679688" xlink:href="#DejaVuSans-74"/>
     <use x="401.888672" xlink:href="#DejaVuSans-69"/>
     <use x="429.671875" xlink:href="#DejaVuSans-76"/>
    </g>
   </g>
   <g id="text_48">
    <!-- Union -->
    <defs>
     <path d="M 8.6875 72.90625 
L 18.609375 72.90625 
L 18.609375 28.609375 
Q 18.609375 16.890625 22.84375 11.734375 
Q 27.09375 6.59375 36.625 6.59375 
Q 46.09375 6.59375 50.34375 11.734375 
Q 54.59375 16.890625 54.59375 28.609375 
L 54.59375 72.90625 
L 64.5 72.90625 
L 64.5 27.390625 
Q 64.5 13.140625 57.4375 5.859375 
Q 50.390625 -1.421875 36.625 -1.421875 
Q 22.796875 -1.421875 15.734375 5.859375 
Q 8.6875 13.140625 8.6875 27.390625 
z
" id="DejaVuSans-55"/>
    </defs>
    <g transform="translate(912.486754 539.983898)scale(0.1 -0.1)">
     <use xlink:href="#DejaVuSans-55"/>
     <use x="73.193359" xlink:href="#DejaVuSans-6e"/>
     <use x="136.572266" xlink:href="#DejaVuSans-69"/>
     <use x="164.355469" xlink:href="#DejaVuSans-6f"/>
     <use x="225.537109" xlink:href="#DejaVuSans-6e"/>
    </g>
   </g>
   <g id="text_49">
    <!-- Arbeitslosigkeit -->
    <g transform="translate(707.310188 182.349888)scale(0.1 -0.1)">
     <use xlink:href="#DejaVuSans-41"/>
     <use x="68.408203" xlink:href="#DejaVuSans-72"/>
     <use x="109.521484" xlink:href="#DejaVuSans-62"/>
     <use x="172.998047" xlink:href="#DejaVuSans-65"/>
     <use x="234.521484" xlink:href="#DejaVuSans-69"/>
     <use x="262.304688" xlink:href="#DejaVuSans-74"/>
     <use x="301.513672" xlink:href="#DejaVuSans-73"/>
     <use x="353.613281" xlink:href="#DejaVuSans-6c"/>
     <use x="381.396484" xlink:href="#DejaVuSans-6f"/>
     <use x="442.578125" xlink:href="#DejaVuSans-73"/>
     <use x="494.677734" xlink:href="#DejaVuSans-69"/>
     <use x="522.460938" xlink:href="#DejaVuSans-67"/>
     <use x="585.9375" xlink:href="#DejaVuSans-6b"/>
     <use x="643.800781" xlink:href="#DejaVuSans-65"/>
     <use x="705.324219" xlink:href="#DejaVuSans-69"/>
     <use x="733.107422" xlink:href="#DejaVuSans-74"/>
    </g>
   </g>
   <g id="text_50">
    <!-- Haftbefehl -->
    <g transform="translate(453.798064 169.279719)scale(0.1 -0.1)">
     <use xlink:href="#DejaVuSans-48"/>
     <use x="75.195312" xlink:href="#DejaVuSans-61"/>
     <use x="136.474609" xlink:href="#DejaVuSans-66"/>
     <use x="171.664062" xlink:href="#DejaVuSans-74"/>
     <use x="210.873047" xlink:href="#DejaVuSans-62"/>
     <use x="274.349609" xlink:href="#DejaVuSans-65"/>
     <use x="335.873047" xlink:href="#DejaVuSans-66"/>
     <use x="371.078125" xlink:href="#DejaVuSans-65"/>
     <use x="432.601562" xlink:href="#DejaVuSans-68"/>
     <use x="495.980469" xlink:href="#DejaVuSans-6c"/>
    </g>
   </g>
   <g id="text_51">
    <!-- Fluchtling -->
    <g transform="translate(654.535654 226.14812)scale(0.1 -0.1)">
     <use xlink:href="#DejaVuSans-46"/>
     <use x="57.519531" xlink:href="#DejaVuSans-6c"/>
     <use x="85.302734" xlink:href="#DejaVuSans-75"/>
     <use x="148.681641" xlink:href="#DejaVuSans-63"/>
     <use x="203.662109" xlink:href="#DejaVuSans-68"/>
     <use x="267.041016" xlink:href="#DejaVuSans-74"/>
     <use x="306.25" xlink:href="#DejaVuSans-6c"/>
     <use x="334.033203" xlink:href="#DejaVuSans-69"/>
     <use x="361.816406" xlink:href="#DejaVuSans-6e"/>
     <use x="425.195312" xlink:href="#DejaVuSans-67"/>
    </g>
   </g>
   <g id="text_52">
    <!-- Frauen -->
    <g transform="translate(317.478448 97.275786)scale(0.1 -0.1)">
     <use xlink:href="#DejaVuSans-46"/>
     <use x="57.410156" xlink:href="#DejaVuSans-72"/>
     <use x="98.523438" xlink:href="#DejaVuSans-61"/>
     <use x="159.802734" xlink:href="#DejaVuSans-75"/>
     <use x="223.181641" xlink:href="#DejaVuSans-65"/>
     <use x="284.705078" xlink:href="#DejaVuSans-6e"/>
    </g>
   </g>
   <g id="text_53">
    <!-- Jobs -->
    <g transform="translate(812.833865 284.07384)scale(0.1 -0.1)">
     <use xlink:href="#DejaVuSans-4a"/>
     <use x="29.492188" xlink:href="#DejaVuSans-6f"/>
     <use x="90.673828" xlink:href="#DejaVuSans-62"/>
     <use x="154.150391" xlink:href="#DejaVuSans-73"/>
    </g>
   </g>
   <g id="text_54">
    <!-- Wirtschaft -->
    <g transform="translate(934.12844 275.88549)scale(0.1 -0.1)">
     <use xlink:href="#DejaVuSans-57"/>
     <use x="98.845703" xlink:href="#DejaVuSans-69"/>
     <use x="126.628906" xlink:href="#DejaVuSans-72"/>
     <use x="167.742188" xlink:href="#DejaVuSans-74"/>
     <use x="206.951172" xlink:href="#DejaVuSans-73"/>
     <use x="259.050781" xlink:href="#DejaVuSans-63"/>
     <use x="314.03125" xlink:href="#DejaVuSans-68"/>
     <use x="377.410156" xlink:href="#DejaVuSans-61"/>
     <use x="438.689453" xlink:href="#DejaVuSans-66"/>
     <use x="473.878906" xlink:href="#DejaVuSans-74"/>
    </g>
   </g>
   <g id="text_55">
    <!-- Haushalte -->
    <g transform="translate(853.35817 187.369213)scale(0.1 -0.1)">
     <use xlink:href="#DejaVuSans-48"/>
     <use x="75.195312" xlink:href="#DejaVuSans-61"/>
     <use x="136.474609" xlink:href="#DejaVuSans-75"/>
     <use x="199.853516" xlink:href="#DejaVuSans-73"/>
     <use x="251.953125" xlink:href="#DejaVuSans-68"/>
     <use x="315.332031" xlink:href="#DejaVuSans-61"/>
     <use x="376.611328" xlink:href="#DejaVuSans-6c"/>
     <use x="404.394531" xlink:href="#DejaVuSans-74"/>
     <use x="443.603516" xlink:href="#DejaVuSans-65"/>
    </g>
   </g>
   <g id="text_56">
    <!-- Hierzulande -->
    <g transform="translate(717.509191 307.349639)scale(0.1 -0.1)">
     <use xlink:href="#DejaVuSans-48"/>
     <use x="75.195312" xlink:href="#DejaVuSans-69"/>
     <use x="102.978516" xlink:href="#DejaVuSans-65"/>
     <use x="164.501953" xlink:href="#DejaVuSans-72"/>
     <use x="205.615234" xlink:href="#DejaVuSans-7a"/>
     <use x="258.105469" xlink:href="#DejaVuSans-75"/>
     <use x="321.484375" xlink:href="#DejaVuSans-6c"/>
     <use x="349.267578" xlink:href="#DejaVuSans-61"/>
     <use x="410.546875" xlink:href="#DejaVuSans-6e"/>
     <use x="473.925781" xlink:href="#DejaVuSans-64"/>
     <use x="537.402344" xlink:href="#DejaVuSans-65"/>
    </g>
   </g>
   <g id="text_57">
    <!-- Land -->
    <defs>
     <path d="M 9.8125 72.90625 
L 19.671875 72.90625 
L 19.671875 8.296875 
L 55.171875 8.296875 
L 55.171875 0 
L 9.8125 0 
z
" id="DejaVuSans-4c"/>
    </defs>
    <g transform="translate(884.082312 99.875462)scale(0.1 -0.1)">
     <use xlink:href="#DejaVuSans-4c"/>
     <use x="55.712891" xlink:href="#DejaVuSans-61"/>
     <use x="116.992188" xlink:href="#DejaVuSans-6e"/>
     <use x="180.371094" xlink:href="#DejaVuSans-64"/>
    </g>
   </g>
   <g id="text_58">
    <!-- Tradition -->
    <g transform="translate(582.667381 243.015921)scale(0.1 -0.1)">
     <use xlink:href="#DejaVuSans-54"/>
     <use x="60.865234" xlink:href="#DejaVuSans-72"/>
     <use x="101.978516" xlink:href="#DejaVuSans-61"/>
     <use x="163.257812" xlink:href="#DejaVuSans-64"/>
     <use x="226.734375" xlink:href="#DejaVuSans-69"/>
     <use x="254.517578" xlink:href="#DejaVuSans-74"/>
     <use x="293.726562" xlink:href="#DejaVuSans-69"/>
     <use x="321.509766" xlink:href="#DejaVuSans-6f"/>
     <use x="382.691406" xlink:href="#DejaVuSans-6e"/>
    </g>
   </g>
   <g id="text_59">
    <!-- Eu -->
    <g transform="translate(787.67857 335.22112)scale(0.1 -0.1)">
     <use xlink:href="#DejaVuSans-45"/>
     <use x="63.183594" xlink:href="#DejaVuSans-75"/>
    </g>
   </g>
   <g id="text_60">
    <!-- Arbeitnehmer -->
    <g transform="translate(750.27694 265.948722)scale(0.1 -0.1)">
     <use xlink:href="#DejaVuSans-41"/>
     <use x="68.408203" xlink:href="#DejaVuSans-72"/>
     <use x="109.521484" xlink:href="#DejaVuSans-62"/>
     <use x="172.998047" xlink:href="#DejaVuSans-65"/>
     <use x="234.521484" xlink:href="#DejaVuSans-69"/>
     <use x="262.304688" xlink:href="#DejaVuSans-74"/>
     <use x="301.513672" xlink:href="#DejaVuSans-6e"/>
     <use x="364.892578" xlink:href="#DejaVuSans-65"/>
     <use x="426.416016" xlink:href="#DejaVuSans-68"/>
     <use x="489.794922" xlink:href="#DejaVuSans-6d"/>
     <use x="587.207031" xlink:href="#DejaVuSans-65"/>
     <use x="648.730469" xlink:href="#DejaVuSans-72"/>
    </g>
   </g>
   <g id="text_61">
    <!-- Erhohung -->
    <g transform="translate(938.761414 196.553417)scale(0.1 -0.1)">
     <use xlink:href="#DejaVuSans-45"/>
     <use x="63.183594" xlink:href="#DejaVuSans-72"/>
     <use x="104.28125" xlink:href="#DejaVuSans-68"/>
     <use x="167.660156" xlink:href="#DejaVuSans-6f"/>
     <use x="228.841797" xlink:href="#DejaVuSans-68"/>
     <use x="292.220703" xlink:href="#DejaVuSans-75"/>
     <use x="355.599609" xlink:href="#DejaVuSans-6e"/>
     <use x="418.978516" xlink:href="#DejaVuSans-67"/>
    </g>
   </g>
   <g id="text_62">
    <!-- Verlust -->
    <defs>
     <path d="M 28.609375 0 
L 0.78125 72.90625 
L 11.078125 72.90625 
L 34.1875 11.53125 
L 57.328125 72.90625 
L 67.578125 72.90625 
L 39.796875 0 
z
" id="DejaVuSans-56"/>
    </defs>
    <g transform="translate(598.043263 288.878855)scale(0.1 -0.1)">
     <use xlink:href="#DejaVuSans-56"/>
     <use x="68.298828" xlink:href="#DejaVuSans-65"/>
     <use x="129.822266" xlink:href="#DejaVuSans-72"/>
     <use x="170.935547" xlink:href="#DejaVuSans-6c"/>
     <use x="198.71875" xlink:href="#DejaVuSans-75"/>
     <use x="262.097656" xlink:href="#DejaVuSans-73"/>
     <use x="314.197266" xlink:href="#DejaVuSans-74"/>
    </g>
   </g>
   <g id="text_63">
    <!-- Paradise -->
    <g transform="translate(959.45067 335.141213)scale(0.1 -0.1)">
     <use xlink:href="#DejaVuSans-50"/>
     <use x="60.240234" xlink:href="#DejaVuSans-61"/>
     <use x="121.519531" xlink:href="#DejaVuSans-72"/>
     <use x="162.632812" xlink:href="#DejaVuSans-61"/>
     <use x="223.912109" xlink:href="#DejaVuSans-64"/>
     <use x="287.388672" xlink:href="#DejaVuSans-69"/>
     <use x="315.171875" xlink:href="#DejaVuSans-73"/>
     <use x="367.271484" xlink:href="#DejaVuSans-65"/>
    </g>
   </g>
   <g id="text_64">
    <!-- Appleby -->
    <g transform="translate(775.701008 144.884462)scale(0.1 -0.1)">
     <use xlink:href="#DejaVuSans-41"/>
     <use x="68.408203" xlink:href="#DejaVuSans-70"/>
     <use x="131.884766" xlink:href="#DejaVuSans-70"/>
     <use x="195.361328" xlink:href="#DejaVuSans-6c"/>
     <use x="223.144531" xlink:href="#DejaVuSans-65"/>
     <use x="284.667969" xlink:href="#DejaVuSans-62"/>
     <use x="348.144531" xlink:href="#DejaVuSans-79"/>
    </g>
   </g>
   <g id="text_65">
    <!-- Mann -->
    <defs>
     <path d="M 9.8125 72.90625 
L 24.515625 72.90625 
L 43.109375 23.296875 
L 61.8125 72.90625 
L 76.515625 72.90625 
L 76.515625 0 
L 66.890625 0 
L 66.890625 64.015625 
L 48.09375 14.015625 
L 38.1875 14.015625 
L 19.390625 64.015625 
L 19.390625 0 
L 9.8125 0 
z
" id="DejaVuSans-4d"/>
    </defs>
    <g transform="translate(195.621571 183.757111)scale(0.1 -0.1)">
     <use xlink:href="#DejaVuSans-4d"/>
     <use x="86.279297" xlink:href="#DejaVuSans-61"/>
     <use x="147.558594" xlink:href="#DejaVuSans-6e"/>
     <use x="210.9375" xlink:href="#DejaVuSans-6e"/>
    </g>
   </g>
   <g id="text_66">
    <!-- Kind -->
    <g transform="translate(230.461504 239.047315)scale(0.1 -0.1)">
     <use xlink:href="#DejaVuSans-4b"/>
     <use x="65.576172" xlink:href="#DejaVuSans-69"/>
     <use x="93.359375" xlink:href="#DejaVuSans-6e"/>
     <use x="156.738281" xlink:href="#DejaVuSans-64"/>
    </g>
   </g>
   <g id="text_67">
    <!-- Panama -->
    <g transform="translate(875.612928 318.863699)scale(0.1 -0.1)">
     <use xlink:href="#DejaVuSans-50"/>
     <use x="60.240234" xlink:href="#DejaVuSans-61"/>
     <use x="121.519531" xlink:href="#DejaVuSans-6e"/>
     <use x="184.898438" xlink:href="#DejaVuSans-61"/>
     <use x="246.177734" xlink:href="#DejaVuSans-6d"/>
     <use x="343.589844" xlink:href="#DejaVuSans-61"/>
    </g>
   </g>
   <g id="text_68">
    <!-- Steuer -->
    <g transform="translate(684.897896 76.249816)scale(0.1 -0.1)">
     <use xlink:href="#DejaVuSans-53"/>
     <use x="63.476562" xlink:href="#DejaVuSans-74"/>
     <use x="102.685547" xlink:href="#DejaVuSans-65"/>
     <use x="164.208984" xlink:href="#DejaVuSans-75"/>
     <use x="227.587891" xlink:href="#DejaVuSans-65"/>
     <use x="289.111328" xlink:href="#DejaVuSans-72"/>
    </g>
   </g>
   <g id="text_69">
    <!-- Kevin -->
    <g transform="translate(333.964043 312.667833)scale(0.1 -0.1)">
     <use xlink:href="#DejaVuSans-4b"/>
     <use x="65.498047" xlink:href="#DejaVuSans-65"/>
     <use x="127.021484" xlink:href="#DejaVuSans-76"/>
     <use x="186.201172" xlink:href="#DejaVuSans-69"/>
     <use x="213.984375" xlink:href="#DejaVuSans-6e"/>
    </g>
   </g>
   <g id="text_70">
    <!-- Sohn -->
    <g transform="translate(113.583936 275.177244)scale(0.1 -0.1)">
     <use xlink:href="#DejaVuSans-53"/>
     <use x="63.476562" xlink:href="#DejaVuSans-6f"/>
     <use x="124.658203" xlink:href="#DejaVuSans-68"/>
     <use x="188.037109" xlink:href="#DejaVuSans-6e"/>
    </g>
   </g>
   <g id="text_71">
    <!-- Tochter -->
    <g transform="translate(92.404943 334.932354)scale(0.1 -0.1)">
     <use xlink:href="#DejaVuSans-54"/>
     <use x="60.818359" xlink:href="#DejaVuSans-6f"/>
     <use x="122" xlink:href="#DejaVuSans-63"/>
     <use x="176.980469" xlink:href="#DejaVuSans-68"/>
     <use x="240.359375" xlink:href="#DejaVuSans-74"/>
     <use x="279.568359" xlink:href="#DejaVuSans-65"/>
     <use x="341.091797" xlink:href="#DejaVuSans-72"/>
    </g>
   </g>
   <g id="text_72">
    <!-- Vater -->
    <g transform="translate(191.230863 282.815821)scale(0.1 -0.1)">
     <use xlink:href="#DejaVuSans-56"/>
     <use x="68.298828" xlink:href="#DejaVuSans-61"/>
     <use x="129.578125" xlink:href="#DejaVuSans-74"/>
     <use x="168.787109" xlink:href="#DejaVuSans-65"/>
     <use x="230.310547" xlink:href="#DejaVuSans-72"/>
    </g>
   </g>
   <g id="text_73">
    <!-- Mutter -->
    <g transform="translate(117.598974 227.128182)scale(0.1 -0.1)">
     <use xlink:href="#DejaVuSans-4d"/>
     <use x="86.279297" xlink:href="#DejaVuSans-75"/>
     <use x="149.658203" xlink:href="#DejaVuSans-74"/>
     <use x="188.867188" xlink:href="#DejaVuSans-74"/>
     <use x="228.076172" xlink:href="#DejaVuSans-65"/>
     <use x="289.599609" xlink:href="#DejaVuSans-72"/>
    </g>
   </g>
   <g id="text_74">
    <!-- Freund -->
    <g transform="translate(347.546885 246.040583)scale(0.1 -0.1)">
     <use xlink:href="#DejaVuSans-46"/>
     <use x="57.410156" xlink:href="#DejaVuSans-72"/>
     <use x="98.492188" xlink:href="#DejaVuSans-65"/>
     <use x="160.015625" xlink:href="#DejaVuSans-75"/>
     <use x="223.394531" xlink:href="#DejaVuSans-6e"/>
     <use x="286.773438" xlink:href="#DejaVuSans-64"/>
    </g>
   </g>
   <g id="text_75">
    <!-- Freundin -->
    <g transform="translate(438.217581 238.11391)scale(0.1 -0.1)">
     <use xlink:href="#DejaVuSans-46"/>
     <use x="57.410156" xlink:href="#DejaVuSans-72"/>
     <use x="98.492188" xlink:href="#DejaVuSans-65"/>
     <use x="160.015625" xlink:href="#DejaVuSans-75"/>
     <use x="223.394531" xlink:href="#DejaVuSans-6e"/>
     <use x="286.773438" xlink:href="#DejaVuSans-64"/>
     <use x="350.25" xlink:href="#DejaVuSans-69"/>
     <use x="378.033203" xlink:href="#DejaVuSans-6e"/>
    </g>
   </g>
   <g id="text_76">
    <!-- TSNE Plot of Word Embeddings -->
    <defs>
     <path id="DejaVuSans-20"/>
    </defs>
    <g transform="translate(443.825 22.396875)scale(0.2 -0.2)">
     <use xlink:href="#DejaVuSans-54"/>
     <use x="61.083984" xlink:href="#DejaVuSans-53"/>
     <use x="124.560547" xlink:href="#DejaVuSans-4e"/>
     <use x="199.365234" xlink:href="#DejaVuSans-45"/>
     <use x="262.548828" xlink:href="#DejaVuSans-20"/>
     <use x="294.335938" xlink:href="#DejaVuSans-50"/>
     <use x="354.638672" xlink:href="#DejaVuSans-6c"/>
     <use x="382.421875" xlink:href="#DejaVuSans-6f"/>
     <use x="443.603516" xlink:href="#DejaVuSans-74"/>
     <use x="482.8125" xlink:href="#DejaVuSans-20"/>
     <use x="514.599609" xlink:href="#DejaVuSans-6f"/>
     <use x="575.78125" xlink:href="#DejaVuSans-66"/>
     <use x="610.986328" xlink:href="#DejaVuSans-20"/>
     <use x="642.773438" xlink:href="#DejaVuSans-57"/>
     <use x="741.572266" xlink:href="#DejaVuSans-6f"/>
     <use x="802.753906" xlink:href="#DejaVuSans-72"/>
     <use x="843.851562" xlink:href="#DejaVuSans-64"/>
     <use x="907.328125" xlink:href="#DejaVuSans-20"/>
     <use x="939.115234" xlink:href="#DejaVuSans-45"/>
     <use x="1002.298828" xlink:href="#DejaVuSans-6d"/>
     <use x="1099.710938" xlink:href="#DejaVuSans-62"/>
     <use x="1163.1875" xlink:href="#DejaVuSans-65"/>
     <use x="1224.710938" xlink:href="#DejaVuSans-64"/>
     <use x="1288.1875" xlink:href="#DejaVuSans-64"/>
     <use x="1351.664062" xlink:href="#DejaVuSans-69"/>
     <use x="1379.447266" xlink:href="#DejaVuSans-6e"/>
     <use x="1442.826172" xlink:href="#DejaVuSans-67"/>
     <use x="1506.302734" xlink:href="#DejaVuSans-73"/>
    </g>
   </g>
  </g>
 </g>
 <defs>
  <clipPath id="p167eebcd63">
   <rect height="543.6" width="1116" x="41.667187" y="28.396875"/>
  </clipPath>
 </defs>
</svg>
